<?xml version="1.0" standalone="no"?>
<!DOCTYPE svg PUBLIC "-//W3C//DTD SVG 20010904//EN"
 "http://www.w3.org/TR/2001/REC-SVG-20010904/DTD/svg10.dtd">
<svg version="1.0" xmlns="http://www.w3.org/2000/svg"
 width="47.000000pt" height="70.000000pt" viewBox="0 0 47.000000 70.000000"
 preserveAspectRatio="xMidYMid meet">

<g transform="translate(0.000000,70.000000) scale(0.100000,-0.100000)"
fill="#000000" stroke="none">
<path d="M40 540 c0 -49 1 -50 30 -50 17 0 30 5 30 10 0 6 -9 10 -20 10 -17 0
-20 7 -20 40 0 22 -4 40 -10 40 -5 0 -10 -22 -10 -50z"/>
<path d="M108 565 c-22 -49 25 -96 68 -67 18 12 26 50 14 72 -16 30 -67 27
-82 -5z m65 -7 c7 -23 -5 -48 -24 -48 -22 0 -34 22 -25 45 7 18 43 20 49 3z"/>
<path d="M222 578 c-17 -17 -15 -63 2 -77 8 -7 27 -11 43 -9 22 2 28 8 28 28
0 18 -6 26 -22 28 -24 4 -32 -13 -10 -21 6 -2 9 -8 5 -12 -12 -13 -38 3 -38
24 0 24 26 40 53 33 14 -3 18 -1 13 6 -9 16 -59 15 -74 0z"/>
<path d="M318 565 c-22 -49 25 -96 68 -67 18 12 26 50 14 72 -16 30 -67 27
-82 -5z m66 -11 c9 -24 -5 -45 -28 -42 -24 3 -33 32 -16 53 13 16 36 10 44
-11z"/>
<path d="M52 378 c-15 -15 -15 -61 0 -76 15 -15 58 -16 58 -2 0 6 -11 10 -25
10 -21 0 -25 5 -25 30 0 28 8 35 38 31 6 -1 12 3 12 9 0 14 -43 13 -58 -2z"/>
<path d="M132 378 c-16 -16 -15 -63 2 -78 37 -30 94 17 77 64 -9 24 -59 34
-79 14z m58 -40 c0 -25 -4 -29 -22 -26 -26 3 -35 32 -18 53 18 21 40 6 40 -27z"/>
<path d="M230 340 c0 -27 5 -50 10 -50 6 0 10 17 11 38 l0 37 16 -38 c18 -45
32 -44 49 4 l12 34 1 -37 c1 -57 21 -45 21 12 0 60 -22 69 -44 18 l-14 -33
-12 33 c-8 21 -19 32 -31 32 -16 0 -19 -8 -19 -50z"/>
<path d="M40 151 c0 -28 5 -51 10 -51 6 0 10 7 10 15 0 9 12 20 26 25 39 15
30 54 -13 58 l-33 3 0 -50z m48 17 c-6 -18 -28 -21 -28 -4 0 9 7 16 16 16 9 0
14 -5 12 -12z"/>
<path d="M130 175 c-19 -49 -22 -75 -11 -75 6 0 11 5 11 10 0 14 33 13 48 -2
20 -20 22 -4 4 45 -19 52 -38 60 -52 22z m26 -32 c-10 -10 -19 5 -10 18 6 11
8 11 12 0 2 -7 1 -15 -2 -18z"/>
<path d="M210 150 c0 -27 5 -50 10 -50 6 0 10 17 10 38 l1 37 20 -37 c29 -55
49 -50 49 12 0 55 -17 69 -22 18 l-3 -33 -18 33 c-27 49 -47 42 -47 -18z"/>
<path d="M315 183 c5 -10 13 -33 19 -50 12 -37 26 -43 26 -13 0 12 7 34 15 50
14 27 14 30 0 30 -8 0 -15 -7 -15 -15 0 -8 -4 -15 -9 -15 -5 0 -11 7 -15 15
-3 8 -10 15 -17 15 -7 0 -8 -7 -4 -17z"/>
</g>
</svg>
