<?xml version="1.0" standalone="no"?>
<!DOCTYPE svg PUBLIC "-//W3C//DTD SVG 20010904//EN"
 "http://www.w3.org/TR/2001/REC-SVG-20010904/DTD/svg10.dtd">
<svg version="1.0" xmlns="http://www.w3.org/2000/svg"
 width="47.000000pt" height="70.000000pt" viewBox="0 0 47.000000 70.000000"
 preserveAspectRatio="xMidYMid meet">

<g transform="translate(0.000000,70.000000) scale(0.100000,-0.100000)"
fill="#000000" stroke="none">
<path d="M195 591 c-14 -23 -28 -56 -32 -74 -3 -18 -10 -37 -15 -44 -5 -6 -8
-20 -6 -30 1 -10 -7 -32 -20 -50 -12 -17 -25 -46 -28 -65 -5 -29 -4 -31 7 -13
18 30 19 31 29 15 14 -22 13 -26 -15 -38 -14 -6 -25 -19 -25 -27 0 -9 4 -14 9
-11 4 3 16 -3 26 -14 18 -20 18 -20 -11 -19 -50 3 -66 -1 -62 -13 3 -7 -1 -19
-9 -26 -7 -7 -13 -22 -13 -32 0 -10 -5 -22 -10 -25 -15 -10 -12 -72 4 -78 19
-8 33 10 41 54 4 20 12 36 19 36 11 0 11 -9 1 -49 -13 -46 -7 -67 15 -53 5 3
10 2 10 -3 0 -11 76 -32 117 -32 16 0 41 6 56 13 26 12 27 15 25 81 -3 64 -1
69 18 71 14 1 20 -4 18 -14 -1 -9 -5 -34 -8 -56 l-5 -40 21 25 21 25 -8 -25
c-4 -14 -12 -28 -17 -31 -6 -4 -6 -9 2 -14 18 -11 21 -2 26 62 2 37 1 49 -4
33 -8 -24 -8 -24 -14 -4 -4 14 1 27 14 38 19 17 29 8 26 -24 -6 -69 10 -105
41 -95 26 8 26 19 1 70 -11 22 -19 45 -20 51 0 21 -22 33 -42 23 -21 -11 -52
6 -42 23 3 5 11 5 19 -2 10 -8 15 -8 20 0 8 14 6 17 -36 39 -34 18 -54 46 -25
35 15 -6 17 -2 20 34 1 7 8 17 16 22 13 8 13 10 -2 10 -9 0 -19 6 -21 13 -3 7
-6 4 -6 -7 -1 -14 -4 -16 -14 -7 -8 6 -18 7 -22 3 -5 -4 -5 -1 -1 6 4 6 2 12
-3 12 -6 0 -11 6 -11 14 0 19 -70 10 -86 -10 -6 -8 -14 -11 -17 -8 -9 9 23 54
38 54 18 0 29 51 13 61 -10 7 -10 11 3 21 20 16 31 46 20 52 -4 3 -15 -10 -24
-29 -22 -45 -42 -46 -33 -2 4 17 11 34 16 35 6 2 10 11 10 21 0 9 5 22 12 29
6 6 9 14 6 18 -4 3 -18 -13 -33 -35z m5 -156 c-7 -8 -18 -15 -24 -15 -6 0 -2
7 8 15 25 19 32 19 16 0z m29 -99 c-21 -36 -39 -47 -39 -24 0 13 51 70 57 64
2 -2 -6 -20 -18 -40z m-79 14 c8 -5 11 -10 5 -10 -5 0 -17 5 -25 10 -8 5 -10
10 -5 10 6 0 17 -5 25 -10z m147 -36 c-9 -9 -28 6 -21 18 4 6 10 6 17 -1 6 -6
8 -13 4 -17z m-92 -74 c13 0 14 4 5 20 -9 17 -8 20 7 20 21 0 55 -20 36 -20
-7 0 -13 -7 -13 -15 0 -8 7 -15 15 -15 8 0 15 9 15 20 0 11 5 20 10 20 17 0
11 -52 -7 -66 -20 -15 -71 -18 -90 -6 -12 8 -16 25 -14 62 2 25 2 25 11 3 5
-13 16 -23 25 -23z m-85 -60 c0 -5 -4 -10 -10 -10 -5 0 -10 5 -10 10 0 6 5 10
10 10 6 0 10 -4 10 -10z m-50 -20 c0 -5 -2 -10 -4 -10 -3 0 -8 5 -11 10 -3 6
-1 10 4 10 6 0 11 -4 11 -10z m116 -39 c-3 -5 -17 -11 -31 -13 -20 -4 -23 -3
-14 8 12 15 54 20 45 5z m-136 -35 c0 -3 -4 -8 -10 -11 -5 -3 -10 -1 -10 4 0
6 5 11 10 11 6 0 10 -2 10 -4z m210 -11 c0 -8 -7 -15 -15 -15 -8 0 -15 7 -15
15 0 8 7 15 15 15 8 0 15 -7 15 -15z m167 -7 c-3 -8 -6 -5 -6 6 -1 11 2 17 5
13 3 -3 4 -12 1 -19z m-275 -30 c-15 -15 -26 -4 -18 18 5 13 9 15 18 6 9 -9 9
-15 0 -24z"/>
<path d="M262 428 c2 -6 10 -14 16 -16 7 -2 10 2 6 12 -7 18 -28 22 -22 4z"/>
</g>
</svg>
